<svg width="296" height="258" viewBox="0 0 296 258" fill="none" xmlns="http://www.w3.org/2000/svg">
<path d="M234.986 128.419C235.295 128.019 235.512 127.555 235.623 127.062C235.733 126.568 235.733 126.057 235.624 125.563C235.515 125.07 235.299 124.606 234.991 124.204C234.683 123.803 234.291 123.474 233.842 123.241L234.526 115.367L229.838 113.785L229.028 124.918C228.685 125.697 228.641 126.575 228.903 127.385C229.165 128.194 229.716 128.88 230.45 129.312C231.184 129.743 232.051 129.891 232.887 129.726C233.723 129.562 234.47 129.097 234.985 128.42L234.986 128.419Z" fill="#D4C2A8"/>
<path d="M258.379 189.634H254.161L252.153 173.369H258.382L258.379 189.634Z" fill="#D4C2A8"/>
<path d="M251.145 188.429H259.285V193.549H246.021C246.021 192.191 246.56 190.889 247.522 189.928C248.483 188.968 249.786 188.429 251.145 188.429Z" fill="#4B1979"/>
<path d="M248.8 178.842L244.702 179.848L238.867 164.533L244.916 163.048L248.8 178.842Z" fill="#D4C2A8"/>
<path d="M241.545 179.251L249.448 177.307L250.673 182.279L237.793 185.446C237.468 184.128 237.681 182.734 238.385 181.572C239.088 180.411 240.225 179.575 241.545 179.251Z" fill="#4B1979"/>
<path d="M253.441 184.448C253.056 184.449 252.684 184.307 252.397 184.049C252.111 183.792 251.93 183.437 251.891 183.054L247.035 137.855L242.809 151.677L248.795 173.265C248.898 173.635 248.86 174.03 248.69 174.374C248.519 174.718 248.227 174.987 247.87 175.13L243.111 177.031C242.916 177.11 242.706 177.147 242.495 177.143C242.284 177.138 242.076 177.09 241.884 177.002C241.692 176.915 241.52 176.79 241.378 176.634C241.236 176.478 241.126 176.295 241.057 176.096L233.722 155.07C232.919 152.775 232.564 150.346 232.675 147.917L233.699 125.226L260.664 126.367L260.244 182.507C260.239 182.898 260.088 183.273 259.821 183.558C259.554 183.844 259.189 184.019 258.799 184.051L253.563 184.445C253.522 184.447 253.481 184.448 253.441 184.448Z" fill="#4B1979"/>
<path d="M248.975 75.0086C253.983 75.0086 258.043 70.9529 258.043 65.95C258.043 60.947 253.983 56.8914 248.975 56.8914C243.968 56.8914 239.908 60.947 239.908 65.95C239.908 70.9529 243.968 75.0086 248.975 75.0086Z" fill="#D4C2A8"/>
<path d="M255.643 127.843C253.255 127.843 250.29 127.648 247.22 127.446C243.026 127.17 238.69 126.885 235.452 127.072C235.015 127.116 234.574 127.046 234.171 126.871C233.769 126.696 233.418 126.421 233.152 126.071C229.815 121.803 234.961 105.156 235.182 104.45L239.37 85.8363L239.55 85.8768L239.37 85.8363C240.293 81.7423 243.236 78.7224 247.053 77.9553C250.627 77.2383 254.084 78.6675 256.301 81.7818C256.418 81.947 256.536 82.1166 256.653 82.2904C263.871 92.9704 259.788 119.504 259.515 121.215C259.896 121.672 261.958 124.252 261.391 126.044C261.161 126.773 260.535 127.27 259.53 127.519C258.25 127.772 256.946 127.88 255.642 127.842L255.643 127.843Z" fill="#A06ECE"/>
<path d="M235.598 127.851C234.777 127.851 233.669 127.548 232.175 126.929C231.533 126.662 229.58 125.85 231.952 105.142C233.117 94.9695 234.786 84.8682 234.802 84.7675L234.818 84.6701L234.908 84.6295C234.951 84.61 239.214 82.6582 239.955 80.1498C239.979 80.063 240.008 79.9788 240.041 79.8972C240.245 79.3396 240.657 78.8823 241.19 78.6206C241.723 78.3589 242.337 78.3131 242.904 78.4927C243.502 78.6356 244.023 79.0005 244.362 79.5134C244.701 80.0263 244.832 80.6487 244.728 81.2545C244.47 82.8905 243.974 84.48 243.255 85.9724C241.249 90.1069 239.89 101.068 239.877 101.178C239.8 102.114 237.98 124.293 237.629 125.976C237.507 126.563 237.282 127.283 236.62 127.632C236.303 127.788 235.952 127.864 235.599 127.853L235.598 127.851Z" fill="#4B1979"/>
<path d="M245.504 127.001C245.338 127.001 245.177 126.946 245.047 126.844C242.379 124.819 246.696 100.27 249.255 91.8002C249.768 90.1036 250.224 88.6516 250.612 87.4828C251.319 85.3855 251.812 83.2223 252.085 81.0262C252.226 79.8364 252.532 79.157 253.021 78.9486C253.361 78.8037 253.76 78.9021 254.21 79.2411C256.575 79.1245 258.874 80.0894 261.003 81.1519L262.92 82.1072L265.071 120.151C265.01 122.579 260.219 124.293 258.13 124.402C254.775 124.578 248.749 125.124 246.095 126.803C245.921 126.924 245.716 126.992 245.504 127L245.504 127.001Z" fill="#4B1979"/>
<path d="M233.522 119.863C233.49 119.863 233.459 119.863 233.426 119.86L229.082 119.593C228.866 119.579 228.655 119.521 228.462 119.422C228.269 119.323 228.1 119.185 227.963 119.016C227.827 118.848 227.727 118.653 227.671 118.444C227.614 118.235 227.601 118.017 227.634 117.803L229.6 104.791L233.3 86.5345C233.391 86.0848 233.576 85.6592 233.842 85.2854C234.109 84.9116 234.451 84.5979 234.846 84.3646C235.242 84.1313 235.682 83.9836 236.138 83.9311C236.594 83.8787 237.056 83.9226 237.495 84.06C238.244 84.2988 238.883 84.7973 239.296 85.4654C239.71 86.1336 239.871 86.9274 239.75 87.7036L236.81 105.997L235.069 118.518C235.015 118.89 234.83 119.231 234.546 119.478C234.262 119.724 233.898 119.861 233.522 119.863H233.522Z" fill="#4B1979"/>
<path d="M248.363 105.621C248.628 105.19 248.984 104.823 249.407 104.544C249.829 104.266 250.308 104.084 250.808 104.01C251.309 103.937 251.82 103.974 252.304 104.119C252.789 104.263 253.236 104.513 253.614 104.849L260.737 101.412L263.884 105.227L253.757 109.94C253.149 110.537 252.344 110.89 251.493 110.933C250.642 110.976 249.805 110.706 249.14 110.174C248.475 109.641 248.029 108.884 247.885 108.045C247.742 107.206 247.912 106.343 248.363 105.621Z" fill="#D4C2A8"/>
<path d="M258.258 109.313C257.907 109.312 257.567 109.195 257.291 108.978C257.016 108.761 256.821 108.458 256.739 108.117L255.705 103.82C255.627 103.497 255.653 103.157 255.782 102.851C255.911 102.544 256.135 102.287 256.422 102.117L262.661 98.3858L259.471 86.7185C259.195 85.7194 259.322 84.6521 259.824 83.745C260.325 82.8379 261.163 82.1631 262.157 81.8652C263.15 81.5672 264.221 81.6697 265.14 82.1507C266.059 82.6317 266.753 83.4531 267.073 84.4388L270.595 95.1808C271.028 96.4902 271.031 97.9033 270.605 99.2148C270.178 100.526 269.345 101.668 268.224 102.473L259.172 109.016C258.906 109.209 258.586 109.312 258.258 109.313Z" fill="#4B1979"/>
<path d="M190.848 0H16.1578C14.5252 0.00195212 12.9601 0.65073 11.8057 1.80402C10.6513 2.95731 10.002 4.52094 10 6.15194V24.9323C10.002 26.5633 10.6513 28.127 11.8057 29.2802C12.9601 30.4335 14.5252 31.0823 16.1578 31.0843H190.848C192.48 31.0823 194.045 30.4335 195.2 29.2802C196.354 28.127 197.003 26.5633 197.005 24.9323V6.15194C197.003 4.52094 196.354 2.95731 195.2 1.80402C194.045 0.65073 192.48 0.00195212 190.848 0ZM196.357 24.9323C196.355 26.3915 195.774 27.7903 194.741 28.8221C193.708 29.8539 192.308 30.4345 190.848 30.4366H16.1578C14.6972 30.4345 13.2971 29.8539 12.2643 28.8221C11.2316 27.7903 10.6504 26.3915 10.6483 24.9323V6.15194C10.6504 4.69277 11.2316 3.29398 12.2643 2.26219C13.2971 1.2304 14.6972 0.649795 16.1578 0.647649H190.848C192.308 0.649795 193.708 1.2304 194.741 2.26219C195.774 3.29398 196.355 4.69277 196.357 6.15194V24.9323Z" fill="#3F3D56"/>
<path d="M190.848 75.4435H16.1578C14.5252 75.4416 12.9601 74.7928 11.8057 73.6395C10.6513 72.4862 10.002 70.9226 10 69.2916V50.5116C10.002 48.8806 10.6513 47.3169 11.8057 46.1636C12.9601 45.0104 14.5252 44.3616 16.1578 44.3596H190.848C192.48 44.3616 194.045 45.0104 195.2 46.1636C196.354 47.3169 197.003 48.8806 197.005 50.5116V69.2916C197.003 70.9226 196.354 72.4862 195.2 73.6395C194.045 74.7928 192.48 75.4416 190.848 75.4435ZM16.1578 45.0073C14.6971 45.0089 13.2967 45.5894 12.2638 46.6213C11.2309 47.6532 10.6499 49.0522 10.6483 50.5116V69.2916C10.6496 70.7511 11.2305 72.1504 12.2634 73.1826C13.2963 74.2147 14.6969 74.7953 16.1578 74.797H190.848C192.308 74.7954 193.709 74.215 194.742 73.1831C195.775 72.1512 196.356 70.7521 196.357 69.2927V50.5116C196.356 49.0522 195.775 47.6532 194.742 46.6213C193.709 45.5894 192.309 45.0089 190.848 45.0073H16.1578Z" fill="#CCCCCC"/>
<path d="M190.848 119.803H16.1578C14.5252 119.801 12.9601 119.152 11.8057 117.999C10.6513 116.846 10.002 115.282 10 113.651V94.8712C10.002 93.2402 10.6513 91.6765 11.8057 90.5233C12.9601 89.37 14.5252 88.7212 16.1578 88.7192H190.848C192.48 88.7212 194.045 89.37 195.2 90.5233C196.354 91.6765 197.003 93.2402 197.005 94.8712V113.651C197.003 115.282 196.354 116.846 195.2 117.999C194.045 119.152 192.48 119.801 190.848 119.803ZM16.1578 89.3654C14.6971 89.3671 13.2967 89.9475 12.2638 90.9794C11.2309 92.0113 10.6499 93.4104 10.6483 94.8697V113.65C10.6498 115.109 11.2308 116.508 12.2637 117.54C13.2966 118.572 14.697 119.153 16.1578 119.154H190.848C192.308 119.153 193.709 118.572 194.742 117.54C195.775 116.509 196.356 115.109 196.357 113.65V94.8712C196.356 93.4115 195.775 92.012 194.742 90.9798C193.709 89.9476 192.309 89.367 190.848 89.3654H16.1578Z" fill="#CCCCCC"/>
<path d="M39.7627 26.2497C37.6429 26.2497 35.5708 25.6217 33.8082 24.4452C32.0457 23.2686 30.672 21.5963 29.8608 19.6397C29.0496 17.6832 28.8373 15.5302 29.2509 13.4531C29.6644 11.3761 30.6852 9.46815 32.1841 7.97067C33.683 6.47318 35.5927 5.45338 37.6718 5.04022C39.7508 4.62707 41.9058 4.83911 43.8642 5.64955C45.8227 6.45998 47.4965 7.8324 48.6742 9.59326C49.8519 11.3541 50.4805 13.4243 50.4805 15.5421C50.4805 18.3819 49.3513 21.1055 47.3413 23.1135C45.3314 25.1216 42.6052 26.2497 39.7627 26.2497Z" fill="#A06ECE"/>
<path d="M175.024 24.2843H60.6173C59.9296 24.2843 59.2701 24.0114 58.7839 23.5256C58.2976 23.0398 58.0244 22.381 58.0244 21.6939C58.0244 21.0069 58.2976 20.348 58.7839 19.8622C59.2701 19.3764 59.9296 19.1035 60.6173 19.1035H175.024C175.711 19.1035 176.371 19.3764 176.857 19.8622C177.343 20.348 177.616 21.0069 177.616 21.6939C177.616 22.381 177.343 23.0398 176.857 23.5256C176.371 24.0114 175.711 24.2843 175.024 24.2843Z" fill="#CCCCCC"/>
<path d="M137.75 13.2753H60.6144C59.9267 13.2753 59.2672 13.0024 58.7809 12.5166C58.2947 12.0308 58.0215 11.3719 58.0215 10.6849C58.0215 9.99788 58.2947 9.33899 58.7809 8.8532C59.2672 8.3674 59.9267 8.09448 60.6144 8.09448H137.75C138.437 8.09448 139.097 8.3674 139.583 8.8532C140.069 9.33899 140.343 9.99788 140.343 10.6849C140.343 11.3719 140.069 12.0308 139.583 12.5166C139.097 13.0024 138.437 13.2753 137.75 13.2753Z" fill="#CCCCCC"/>
<path d="M39.7627 70.6091C37.6429 70.6091 35.5708 69.9811 33.8082 68.8045C32.0457 67.628 30.672 65.9557 29.8608 63.9991C29.0496 62.0425 28.8373 59.8896 29.2509 57.8125C29.6644 55.7354 30.6852 53.8275 32.1841 52.33C33.683 50.8326 35.5927 49.8128 37.6718 49.3996C39.7508 48.9864 41.9058 49.1985 43.8642 50.0089C45.8227 50.8194 47.4965 52.1918 48.6742 53.9526C49.8519 55.7135 50.4805 57.7837 50.4805 59.9015C50.4805 62.7413 49.3513 65.4648 47.3413 67.4729C45.3314 69.481 42.6052 70.6091 39.7627 70.6091Z" fill="#E6E6E6"/>
<path d="M175.024 68.644H60.6173C59.9296 68.644 59.2701 68.3711 58.7839 67.8853C58.2976 67.3995 58.0244 66.7406 58.0244 66.0536C58.0244 65.3665 58.2976 64.7076 58.7839 64.2218C59.2701 63.7361 59.9296 63.4631 60.6173 63.4631H175.024C175.711 63.4631 176.371 63.7361 176.857 64.2218C177.343 64.7076 177.616 65.3665 177.616 66.0536C177.616 66.7406 177.343 67.3995 176.857 67.8853C176.371 68.3711 175.711 68.644 175.024 68.644Z" fill="#E6E6E6"/>
<path d="M137.75 57.6349H60.6144C59.9267 57.6349 59.2672 57.362 58.7809 56.8762C58.2947 56.3904 58.0215 55.7315 58.0215 55.0445C58.0215 54.3575 58.2947 53.6986 58.7809 53.2128C59.2672 52.727 59.9267 52.4541 60.6144 52.4541H137.75C138.437 52.4541 139.097 52.727 139.583 53.2128C140.069 53.6986 140.343 54.3575 140.343 55.0445C140.343 55.7315 140.069 56.3904 139.583 56.8762C139.097 57.362 138.437 57.6349 137.75 57.6349Z" fill="#E6E6E6"/>
<path d="M39.7627 114.968C37.6429 114.968 35.5708 114.34 33.8082 113.164C32.0457 111.987 30.672 110.315 29.8608 108.358C29.0496 106.402 28.8373 104.249 29.2509 102.172C29.6644 100.095 30.6852 98.1869 32.1841 96.6894C33.683 95.1919 35.5927 94.1721 37.6718 93.759C39.7508 93.3458 41.9058 93.5579 43.8642 94.3683C45.8227 95.1787 47.4965 96.5512 48.6742 98.312C49.8519 100.073 50.4805 102.143 50.4805 104.261C50.4805 107.101 49.3513 109.824 47.3413 111.832C45.3314 113.84 42.6052 114.968 39.7627 114.968Z" fill="#E6E6E6"/>
<path d="M175.024 113.004H60.6173C59.9296 113.004 59.2701 112.731 58.7839 112.245C58.2976 111.759 58.0244 111.1 58.0244 110.413C58.0244 109.726 58.2976 109.067 58.7839 108.581C59.2701 108.096 59.9296 107.823 60.6173 107.823H175.024C175.711 107.823 176.371 108.096 176.857 108.581C177.343 109.067 177.616 109.726 177.616 110.413C177.616 111.1 177.343 111.759 176.857 112.245C176.371 112.731 175.711 113.004 175.024 113.004Z" fill="#E6E6E6"/>
<path d="M137.75 101.995H60.6144C59.9267 101.995 59.2672 101.722 58.7809 101.236C58.2947 100.75 58.0215 100.091 58.0215 99.4044C58.0215 98.7174 58.2947 98.0585 58.7809 97.5727C59.2672 97.0869 59.9267 96.814 60.6144 96.814H137.75C138.437 96.814 139.097 97.0869 139.583 97.5727C140.069 98.0585 140.343 98.7174 140.343 99.4044C140.343 100.091 140.069 100.75 139.583 101.236C139.097 101.722 138.437 101.995 137.75 101.995Z" fill="#E6E6E6"/>
<path d="M39.2153 19.3085C38.9491 19.3091 38.6899 19.2232 38.4769 19.0636L38.4636 19.0536L35.6856 16.9307C35.5569 16.8322 35.449 16.7093 35.3678 16.569C35.2867 16.4288 35.234 16.274 35.2128 16.1134C35.1916 15.9529 35.2022 15.7897 35.2441 15.6332C35.2859 15.4767 35.3583 15.33 35.4569 15.2015C35.5555 15.073 35.6786 14.9651 35.8189 14.884C35.9593 14.803 36.1143 14.7503 36.275 14.7291C36.4357 14.7079 36.599 14.7185 36.7557 14.7604C36.9123 14.8022 37.0591 14.8745 37.1878 14.973L38.9871 16.3517L43.2389 10.8098C43.438 10.5504 43.7321 10.3806 44.0565 10.3378C44.3809 10.295 44.7091 10.3826 44.9688 10.5815L44.9426 10.6183L44.9695 10.5815C45.2289 10.7807 45.3986 11.0746 45.4413 11.3987C45.4841 11.7227 45.3965 12.0505 45.1977 12.3101L40.1965 18.8257C40.0806 18.9756 39.9318 19.0968 39.7615 19.1799C39.5912 19.263 39.4041 19.3059 39.2145 19.3052L39.2153 19.3085Z" fill="white"/>
<path d="M285.631 194H212.535C212.437 194 212.343 193.961 212.274 193.892C212.205 193.823 212.166 193.729 212.166 193.631C212.166 193.533 212.205 193.439 212.274 193.37C212.343 193.301 212.437 193.262 212.535 193.262H285.631C285.729 193.262 285.823 193.301 285.892 193.37C285.961 193.439 286 193.533 286 193.631C286 193.729 285.961 193.823 285.892 193.892C285.823 193.961 285.729 194 285.631 194Z" fill="#CCCCCC"/>
<path d="M252.309 68.3647C252.309 68.3647 251.205 62.2695 248.694 62.9977C246.184 63.726 239.722 64.4711 239.71 61.6005C239.698 58.73 245.792 56.1928 249.385 56.5362C252.979 56.8796 259.088 57.9302 258.752 63.3138C258.483 66.7045 257.434 69.9874 255.687 72.9068L252.309 68.3647Z" fill="#4B1979"/>
<path d="M13.2599 227.974C13.6146 228.03 13.9366 228.175 14.2259 228.408C14.5246 228.641 14.7579 228.931 14.9259 229.276C15.1032 229.621 15.1919 229.99 15.1919 230.382C15.1919 230.877 15.0659 231.325 14.8139 231.726C14.5619 232.118 14.1932 232.431 13.7079 232.664C13.2319 232.888 12.6672 233 12.0139 233H8.3739V223.242H11.8739C12.5366 223.242 13.1012 223.354 13.5679 223.578C14.0346 223.793 14.3846 224.087 14.6179 224.46C14.8512 224.833 14.9679 225.253 14.9679 225.72C14.9679 226.299 14.8092 226.779 14.4919 227.162C14.1839 227.535 13.7732 227.806 13.2599 227.974ZM9.6479 227.456H11.7899C12.3872 227.456 12.8492 227.316 13.1759 227.036C13.5026 226.756 13.6659 226.369 13.6659 225.874C13.6659 225.379 13.5026 224.992 13.1759 224.712C12.8492 224.432 12.3779 224.292 11.7619 224.292H9.6479V227.456ZM11.9019 231.95C12.5366 231.95 13.0312 231.801 13.3859 231.502C13.7406 231.203 13.9179 230.788 13.9179 230.256C13.9179 229.715 13.7312 229.29 13.3579 228.982C12.9846 228.665 12.4852 228.506 11.8599 228.506H9.6479V231.95H11.9019ZM23.9598 228.87C23.9598 229.113 23.9458 229.369 23.9178 229.64H17.7858C17.8325 230.396 18.0892 230.989 18.5558 231.418C19.0318 231.838 19.6058 232.048 20.2778 232.048C20.8285 232.048 21.2858 231.922 21.6498 231.67C22.0232 231.409 22.2845 231.063 22.4338 230.634H23.8058C23.6005 231.371 23.1898 231.973 22.5738 232.44C21.9578 232.897 21.1925 233.126 20.2778 233.126C19.5498 233.126 18.8965 232.963 18.3178 232.636C17.7485 232.309 17.3005 231.847 16.9738 231.25C16.6472 230.643 16.4838 229.943 16.4838 229.15C16.4838 228.357 16.6425 227.661 16.9598 227.064C17.2772 226.467 17.7205 226.009 18.2898 225.692C18.8685 225.365 19.5312 225.202 20.2778 225.202C21.0058 225.202 21.6498 225.361 22.2098 225.678C22.7698 225.995 23.1992 226.434 23.4978 226.994C23.8058 227.545 23.9598 228.17 23.9598 228.87ZM22.6438 228.604C22.6438 228.119 22.5365 227.703 22.3218 227.358C22.1072 227.003 21.8132 226.737 21.4398 226.56C21.0758 226.373 20.6698 226.28 20.2218 226.28C19.5778 226.28 19.0272 226.485 18.5698 226.896C18.1218 227.307 17.8652 227.876 17.7998 228.604H22.6438ZM26.9155 222.64V233H25.6415V222.64H26.9155ZM35.8908 225.328V233H34.6168V231.866C34.3741 232.258 34.0335 232.566 33.5948 232.79C33.1655 233.005 32.6895 233.112 32.1668 233.112C31.5695 233.112 31.0328 232.991 30.5568 232.748C30.0808 232.496 29.7028 232.123 29.4228 231.628C29.1521 231.133 29.0168 230.531 29.0168 229.822V225.328H30.2768V229.654C30.2768 230.41 30.4681 230.993 30.8508 231.404C31.2335 231.805 31.7561 232.006 32.4188 232.006C33.1001 232.006 33.6368 231.796 34.0288 231.376C34.4208 230.956 34.6168 230.345 34.6168 229.542V225.328H35.8908ZM47.2679 225.188C47.8652 225.188 48.3972 225.314 48.8639 225.566C49.3305 225.809 49.6992 226.177 49.9699 226.672C50.2405 227.167 50.3759 227.769 50.3759 228.478V233H49.1159V228.66C49.1159 227.895 48.9245 227.311 48.5419 226.91C48.1685 226.499 47.6599 226.294 47.0159 226.294C46.3532 226.294 45.8259 226.509 45.4339 226.938C45.0419 227.358 44.8459 227.969 44.8459 228.772V233H43.5859V228.66C43.5859 227.895 43.3945 227.311 43.0119 226.91C42.6385 226.499 42.1299 226.294 41.4859 226.294C40.8232 226.294 40.2959 226.509 39.9039 226.938C39.5119 227.358 39.3159 227.969 39.3159 228.772V233H38.0419V225.328H39.3159V226.434C39.5679 226.033 39.9039 225.725 40.3239 225.51C40.7532 225.295 41.2245 225.188 41.7379 225.188C42.3819 225.188 42.9512 225.333 43.4459 225.622C43.9405 225.911 44.3092 226.336 44.5519 226.896C44.7665 226.355 45.1212 225.935 45.6159 225.636C46.1105 225.337 46.6612 225.188 47.2679 225.188ZM55.7221 229.136C55.7221 228.352 55.8808 227.666 56.1981 227.078C56.5155 226.481 56.9495 226.019 57.5001 225.692C58.0601 225.365 58.6808 225.202 59.3621 225.202C60.0341 225.202 60.6175 225.347 61.1121 225.636C61.6068 225.925 61.9755 226.289 62.2181 226.728V225.328H63.5061V233H62.2181V231.572C61.9661 232.02 61.5881 232.393 61.0841 232.692C60.5895 232.981 60.0108 233.126 59.3481 233.126C58.6668 233.126 58.0508 232.958 57.5001 232.622C56.9495 232.286 56.5155 231.815 56.1981 231.208C55.8808 230.601 55.7221 229.911 55.7221 229.136ZM62.2181 229.15C62.2181 228.571 62.1015 228.067 61.8681 227.638C61.6348 227.209 61.3175 226.882 60.9161 226.658C60.5241 226.425 60.0901 226.308 59.6141 226.308C59.1381 226.308 58.7041 226.42 58.3121 226.644C57.9201 226.868 57.6075 227.195 57.3741 227.624C57.1408 228.053 57.0241 228.557 57.0241 229.136C57.0241 229.724 57.1408 230.237 57.3741 230.676C57.6075 231.105 57.9201 231.437 58.3121 231.67C58.7041 231.894 59.1381 232.006 59.6141 232.006C60.0901 232.006 60.5241 231.894 60.9161 231.67C61.3175 231.437 61.6348 231.105 61.8681 230.676C62.1015 230.237 62.2181 229.729 62.2181 229.15ZM65.1831 229.136C65.1831 228.352 65.3417 227.666 65.6591 227.078C65.9764 226.481 66.4104 226.019 66.9611 225.692C67.5211 225.365 68.1464 225.202 68.8371 225.202C69.4344 225.202 69.9897 225.342 70.5031 225.622C71.0164 225.893 71.4084 226.252 71.6791 226.7V222.64H72.9671V233H71.6791V231.558C71.4271 232.015 71.0537 232.393 70.5591 232.692C70.0644 232.981 69.4857 233.126 68.8231 233.126C68.1417 233.126 67.5211 232.958 66.9611 232.622C66.4104 232.286 65.9764 231.815 65.6591 231.208C65.3417 230.601 65.1831 229.911 65.1831 229.136ZM71.6791 229.15C71.6791 228.571 71.5624 228.067 71.3291 227.638C71.0957 227.209 70.7784 226.882 70.3771 226.658C69.9851 226.425 69.5511 226.308 69.0751 226.308C68.5991 226.308 68.1651 226.42 67.7731 226.644C67.3811 226.868 67.0684 227.195 66.8351 227.624C66.6017 228.053 66.4851 228.557 66.4851 229.136C66.4851 229.724 66.6017 230.237 66.8351 230.676C67.0684 231.105 67.3811 231.437 67.7731 231.67C68.1651 231.894 68.5991 232.006 69.0751 232.006C69.5511 232.006 69.9851 231.894 70.3771 231.67C70.7784 231.437 71.0957 231.105 71.3291 230.676C71.5624 230.237 71.6791 229.729 71.6791 229.15ZM74.644 229.136C74.644 228.352 74.8027 227.666 75.12 227.078C75.4373 226.481 75.8713 226.019 76.422 225.692C76.982 225.365 77.6027 225.202 78.284 225.202C78.956 225.202 79.5393 225.347 80.034 225.636C80.5287 225.925 80.8973 226.289 81.14 226.728V225.328H82.428V233H81.14V231.572C80.888 232.02 80.51 232.393 80.006 232.692C79.5113 232.981 78.9327 233.126 78.27 233.126C77.5887 233.126 76.9727 232.958 76.422 232.622C75.8713 232.286 75.4373 231.815 75.12 231.208C74.8027 230.601 74.644 229.911 74.644 229.136ZM81.14 229.15C81.14 228.571 81.0233 228.067 80.79 227.638C80.5567 227.209 80.2393 226.882 79.838 226.658C79.446 226.425 79.012 226.308 78.536 226.308C78.06 226.308 77.626 226.42 77.234 226.644C76.842 226.868 76.5293 227.195 76.296 227.624C76.0627 228.053 75.946 228.557 75.946 229.136C75.946 229.724 76.0627 230.237 76.296 230.676C76.5293 231.105 76.842 231.437 77.234 231.67C77.626 231.894 78.06 232.006 78.536 232.006C79.012 232.006 79.446 231.894 79.838 231.67C80.2393 231.437 80.5567 231.105 80.79 230.676C81.0233 230.237 81.14 229.729 81.14 229.15ZM89.5874 226.742C89.8394 226.303 90.2127 225.939 90.7074 225.65C91.2114 225.351 91.7947 225.202 92.4574 225.202C93.1387 225.202 93.7547 225.365 94.3054 225.692C94.8654 226.019 95.304 226.481 95.6214 227.078C95.9387 227.666 96.0974 228.352 96.0974 229.136C96.0974 229.911 95.9387 230.601 95.6214 231.208C95.304 231.815 94.8654 232.286 94.3054 232.622C93.7547 232.958 93.1387 233.126 92.4574 233.126C91.804 233.126 91.2254 232.981 90.7214 232.692C90.2267 232.393 89.8487 232.025 89.5874 231.586V236.64H88.3134V225.328H89.5874V226.742ZM94.7954 229.136C94.7954 228.557 94.6787 228.053 94.4454 227.624C94.212 227.195 93.8947 226.868 93.4934 226.644C93.1014 226.42 92.6674 226.308 92.1914 226.308C91.7247 226.308 91.2907 226.425 90.8894 226.658C90.4974 226.882 90.18 227.213 89.9374 227.652C89.704 228.081 89.5874 228.581 89.5874 229.15C89.5874 229.729 89.704 230.237 89.9374 230.676C90.18 231.105 90.4974 231.437 90.8894 231.67C91.2907 231.894 91.7247 232.006 92.1914 232.006C92.6674 232.006 93.1014 231.894 93.4934 231.67C93.8947 231.437 94.212 231.105 94.4454 230.676C94.6787 230.237 94.7954 229.724 94.7954 229.136ZM99.0483 226.574C99.2723 226.135 99.5896 225.795 100 225.552C100.42 225.309 100.929 225.188 101.526 225.188V226.504H101.19C99.7623 226.504 99.0483 227.279 99.0483 228.828V233H97.7743V225.328H99.0483V226.574ZM106.343 233.126C105.624 233.126 104.971 232.963 104.383 232.636C103.804 232.309 103.347 231.847 103.011 231.25C102.684 230.643 102.521 229.943 102.521 229.15C102.521 228.366 102.689 227.675 103.025 227.078C103.37 226.471 103.837 226.009 104.425 225.692C105.013 225.365 105.671 225.202 106.399 225.202C107.127 225.202 107.785 225.365 108.373 225.692C108.961 226.009 109.423 226.467 109.759 227.064C110.104 227.661 110.277 228.357 110.277 229.15C110.277 229.943 110.1 230.643 109.745 231.25C109.4 231.847 108.928 232.309 108.331 232.636C107.734 232.963 107.071 233.126 106.343 233.126ZM106.343 232.006C106.8 232.006 107.23 231.899 107.631 231.684C108.032 231.469 108.354 231.147 108.597 230.718C108.849 230.289 108.975 229.766 108.975 229.15C108.975 228.534 108.854 228.011 108.611 227.582C108.368 227.153 108.051 226.835 107.659 226.63C107.267 226.415 106.842 226.308 106.385 226.308C105.918 226.308 105.489 226.415 105.097 226.63C104.714 226.835 104.406 227.153 104.173 227.582C103.94 228.011 103.823 228.534 103.823 229.15C103.823 229.775 103.935 230.303 104.159 230.732C104.392 231.161 104.7 231.483 105.083 231.698C105.466 231.903 105.886 232.006 106.343 232.006ZM111.476 229.136C111.476 228.352 111.635 227.666 111.952 227.078C112.269 226.481 112.703 226.019 113.254 225.692C113.814 225.365 114.439 225.202 115.13 225.202C115.727 225.202 116.283 225.342 116.796 225.622C117.309 225.893 117.701 226.252 117.972 226.7V222.64H119.26V233H117.972V231.558C117.72 232.015 117.347 232.393 116.852 232.692C116.357 232.981 115.779 233.126 115.116 233.126C114.435 233.126 113.814 232.958 113.254 232.622C112.703 232.286 112.269 231.815 111.952 231.208C111.635 230.601 111.476 229.911 111.476 229.136ZM117.972 229.15C117.972 228.571 117.855 228.067 117.622 227.638C117.389 227.209 117.071 226.882 116.67 226.658C116.278 226.425 115.844 226.308 115.368 226.308C114.892 226.308 114.458 226.42 114.066 226.644C113.674 226.868 113.361 227.195 113.128 227.624C112.895 228.053 112.778 228.557 112.778 229.136C112.778 229.724 112.895 230.237 113.128 230.676C113.361 231.105 113.674 231.437 114.066 231.67C114.458 231.894 114.892 232.006 115.368 232.006C115.844 232.006 116.278 231.894 116.67 231.67C117.071 231.437 117.389 231.105 117.622 230.676C117.855 230.237 117.972 229.729 117.972 229.15ZM128.217 225.328V233H126.943V231.866C126.7 232.258 126.36 232.566 125.921 232.79C125.492 233.005 125.016 233.112 124.493 233.112C123.896 233.112 123.359 232.991 122.883 232.748C122.407 232.496 122.029 232.123 121.749 231.628C121.478 231.133 121.343 230.531 121.343 229.822V225.328H122.603V229.654C122.603 230.41 122.794 230.993 123.177 231.404C123.56 231.805 124.082 232.006 124.745 232.006C125.426 232.006 125.963 231.796 126.355 231.376C126.747 230.956 126.943 230.345 126.943 229.542V225.328H128.217ZM134.652 233L131.642 229.612V233H130.368V222.64H131.642V228.73L134.596 225.328H136.374L132.762 229.15L136.388 233H134.652ZM146.799 225.188C147.396 225.188 147.928 225.314 148.395 225.566C148.862 225.809 149.23 226.177 149.501 226.672C149.772 227.167 149.907 227.769 149.907 228.478V233H148.647V228.66C148.647 227.895 148.456 227.311 148.073 226.91C147.7 226.499 147.191 226.294 146.547 226.294C145.884 226.294 145.357 226.509 144.965 226.938C144.573 227.358 144.377 227.969 144.377 228.772V233H143.117V228.66C143.117 227.895 142.926 227.311 142.543 226.91C142.17 226.499 141.661 226.294 141.017 226.294C140.354 226.294 139.827 226.509 139.435 226.938C139.043 227.358 138.847 227.969 138.847 228.772V233H137.573V225.328H138.847V226.434C139.099 226.033 139.435 225.725 139.855 225.51C140.284 225.295 140.756 225.188 141.269 225.188C141.913 225.188 142.482 225.333 142.977 225.622C143.472 225.911 143.84 226.336 144.083 226.896C144.298 226.355 144.652 225.935 145.147 225.636C145.642 225.337 146.192 225.188 146.799 225.188ZM158.801 225.328V233H157.527V231.866C157.284 232.258 156.944 232.566 156.505 232.79C156.076 233.005 155.6 233.112 155.077 233.112C154.48 233.112 153.943 232.991 153.467 232.748C152.991 232.496 152.613 232.123 152.333 231.628C152.062 231.133 151.927 230.531 151.927 229.822V225.328H153.187V229.654C153.187 230.41 153.378 230.993 153.761 231.404C154.144 231.805 154.666 232.006 155.329 232.006C156.01 232.006 156.547 231.796 156.939 231.376C157.331 230.956 157.527 230.345 157.527 229.542V225.328H158.801ZM171.292 225.328L166.672 236.612H165.356L166.868 232.916L163.774 225.328H165.188L167.596 231.544L169.976 225.328H171.292ZM172.097 229.136C172.097 228.352 172.256 227.666 172.573 227.078C172.89 226.481 173.324 226.019 173.875 225.692C174.435 225.365 175.056 225.202 175.737 225.202C176.409 225.202 176.992 225.347 177.487 225.636C177.982 225.925 178.35 226.289 178.593 226.728V225.328H179.881V233H178.593V231.572C178.341 232.02 177.963 232.393 177.459 232.692C176.964 232.981 176.386 233.126 175.723 233.126C175.042 233.126 174.426 232.958 173.875 232.622C173.324 232.286 172.89 231.815 172.573 231.208C172.256 230.601 172.097 229.911 172.097 229.136ZM178.593 229.15C178.593 228.571 178.476 228.067 178.243 227.638C178.01 227.209 177.692 226.882 177.291 226.658C176.899 226.425 176.465 226.308 175.989 226.308C175.513 226.308 175.079 226.42 174.687 226.644C174.295 226.868 173.982 227.195 173.749 227.624C173.516 228.053 173.399 228.557 173.399 229.136C173.399 229.724 173.516 230.237 173.749 230.676C173.982 231.105 174.295 231.437 174.687 231.67C175.079 231.894 175.513 232.006 175.989 232.006C176.465 232.006 176.899 231.894 177.291 231.67C177.692 231.437 178.01 231.105 178.243 230.676C178.476 230.237 178.593 229.729 178.593 229.15ZM185.772 225.188C186.705 225.188 187.461 225.473 188.04 226.042C188.619 226.602 188.908 227.414 188.908 228.478V233H187.648V228.66C187.648 227.895 187.457 227.311 187.074 226.91C186.691 226.499 186.169 226.294 185.506 226.294C184.834 226.294 184.297 226.504 183.896 226.924C183.504 227.344 183.308 227.955 183.308 228.758V233H182.034V225.328H183.308V226.42C183.56 226.028 183.901 225.725 184.33 225.51C184.769 225.295 185.249 225.188 185.772 225.188ZM194.153 225.202C194.816 225.202 195.394 225.347 195.889 225.636C196.393 225.925 196.766 226.289 197.009 226.728V225.328H198.297V233.168C198.297 233.868 198.148 234.489 197.849 235.03C197.55 235.581 197.121 236.01 196.561 236.318C196.01 236.626 195.366 236.78 194.629 236.78C193.621 236.78 192.781 236.542 192.109 236.066C191.437 235.59 191.04 234.941 190.919 234.12H192.179C192.319 234.587 192.608 234.96 193.047 235.24C193.486 235.529 194.013 235.674 194.629 235.674C195.329 235.674 195.898 235.455 196.337 235.016C196.785 234.577 197.009 233.961 197.009 233.168V231.558C196.757 232.006 196.384 232.379 195.889 232.678C195.394 232.977 194.816 233.126 194.153 233.126C193.472 233.126 192.851 232.958 192.291 232.622C191.74 232.286 191.306 231.815 190.989 231.208C190.672 230.601 190.513 229.911 190.513 229.136C190.513 228.352 190.672 227.666 190.989 227.078C191.306 226.481 191.74 226.019 192.291 225.692C192.851 225.365 193.472 225.202 194.153 225.202ZM197.009 229.15C197.009 228.571 196.892 228.067 196.659 227.638C196.426 227.209 196.108 226.882 195.707 226.658C195.315 226.425 194.881 226.308 194.405 226.308C193.929 226.308 193.495 226.42 193.103 226.644C192.711 226.868 192.398 227.195 192.165 227.624C191.932 228.053 191.815 228.557 191.815 229.136C191.815 229.724 191.932 230.237 192.165 230.676C192.398 231.105 192.711 231.437 193.103 231.67C193.495 231.894 193.929 232.006 194.405 232.006C194.881 232.006 195.315 231.894 195.707 231.67C196.108 231.437 196.426 231.105 196.659 230.676C196.892 230.237 197.009 229.729 197.009 229.15ZM203.706 229.136C203.706 228.352 203.865 227.666 204.182 227.078C204.5 226.481 204.934 226.019 205.484 225.692C206.044 225.365 206.67 225.202 207.36 225.202C207.958 225.202 208.513 225.342 209.026 225.622C209.54 225.893 209.932 226.252 210.202 226.7V222.64H211.49V233H210.202V231.558C209.95 232.015 209.577 232.393 209.082 232.692C208.588 232.981 208.009 233.126 207.346 233.126C206.665 233.126 206.044 232.958 205.484 232.622C204.934 232.286 204.5 231.815 204.182 231.208C203.865 230.601 203.706 229.911 203.706 229.136ZM210.202 229.15C210.202 228.571 210.086 228.067 209.852 227.638C209.619 227.209 209.302 226.882 208.9 226.658C208.508 226.425 208.074 226.308 207.598 226.308C207.122 226.308 206.688 226.42 206.296 226.644C205.904 226.868 205.592 227.195 205.358 227.624C205.125 228.053 205.008 228.557 205.008 229.136C205.008 229.724 205.125 230.237 205.358 230.676C205.592 231.105 205.904 231.437 206.296 231.67C206.688 231.894 207.122 232.006 207.598 232.006C208.074 232.006 208.508 231.894 208.9 231.67C209.302 231.437 209.619 231.105 209.852 230.676C210.086 230.237 210.202 229.729 210.202 229.15ZM214.301 224.082C214.059 224.082 213.853 223.998 213.685 223.83C213.517 223.662 213.433 223.457 213.433 223.214C213.433 222.971 213.517 222.766 213.685 222.598C213.853 222.43 214.059 222.346 214.301 222.346C214.535 222.346 214.731 222.43 214.889 222.598C215.057 222.766 215.141 222.971 215.141 223.214C215.141 223.457 215.057 223.662 214.889 223.83C214.731 223.998 214.535 224.082 214.301 224.082ZM214.917 225.328V233H213.643V225.328H214.917ZM226.315 225.188C226.912 225.188 227.444 225.314 227.911 225.566C228.377 225.809 228.746 226.177 229.017 226.672C229.287 227.167 229.423 227.769 229.423 228.478V233H228.163V228.66C228.163 227.895 227.971 227.311 227.589 226.91C227.215 226.499 226.707 226.294 226.063 226.294C225.4 226.294 224.873 226.509 224.481 226.938C224.089 227.358 223.893 227.969 223.893 228.772V233H222.633V228.66C222.633 227.895 222.441 227.311 222.059 226.91C221.685 226.499 221.177 226.294 220.533 226.294C219.87 226.294 219.343 226.509 218.951 226.938C218.559 227.358 218.363 227.969 218.363 228.772V233H217.089V225.328H218.363V226.434C218.615 226.033 218.951 225.725 219.371 225.51C219.8 225.295 220.271 225.188 220.785 225.188C221.429 225.188 221.998 225.333 222.493 225.622C222.987 225.911 223.356 226.336 223.599 226.896C223.813 226.355 224.168 225.935 224.663 225.636C225.157 225.337 225.708 225.188 226.315 225.188ZM232.171 224.082C231.928 224.082 231.723 223.998 231.555 223.83C231.387 223.662 231.303 223.457 231.303 223.214C231.303 222.971 231.387 222.766 231.555 222.598C231.723 222.43 231.928 222.346 232.171 222.346C232.404 222.346 232.6 222.43 232.759 222.598C232.927 222.766 233.011 222.971 233.011 223.214C233.011 223.457 232.927 223.662 232.759 223.83C232.6 223.998 232.404 224.082 232.171 224.082ZM232.787 225.328V233H231.513V225.328H232.787ZM238.696 225.188C239.629 225.188 240.385 225.473 240.964 226.042C241.543 226.602 241.832 227.414 241.832 228.478V233H240.572V228.66C240.572 227.895 240.381 227.311 239.998 226.91C239.615 226.499 239.093 226.294 238.43 226.294C237.758 226.294 237.221 226.504 236.82 226.924C236.428 227.344 236.232 227.955 236.232 228.758V233H234.958V225.328H236.232V226.42C236.484 226.028 236.825 225.725 237.254 225.51C237.693 225.295 238.173 225.188 238.696 225.188ZM243.437 229.136C243.437 228.352 243.596 227.666 243.913 227.078C244.23 226.481 244.664 226.019 245.215 225.692C245.775 225.365 246.396 225.202 247.077 225.202C247.749 225.202 248.332 225.347 248.827 225.636C249.322 225.925 249.69 226.289 249.933 226.728V225.328H251.221V233H249.933V231.572C249.681 232.02 249.303 232.393 248.799 232.692C248.304 232.981 247.726 233.126 247.063 233.126C246.382 233.126 245.766 232.958 245.215 232.622C244.664 232.286 244.23 231.815 243.913 231.208C243.596 230.601 243.437 229.911 243.437 229.136ZM249.933 229.15C249.933 228.571 249.816 228.067 249.583 227.638C249.35 227.209 249.032 226.882 248.631 226.658C248.239 226.425 247.805 226.308 247.329 226.308C246.853 226.308 246.419 226.42 246.027 226.644C245.635 226.868 245.322 227.195 245.089 227.624C244.856 228.053 244.739 228.557 244.739 229.136C244.739 229.724 244.856 230.237 245.089 230.676C245.322 231.105 245.635 231.437 246.027 231.67C246.419 231.894 246.853 232.006 247.329 232.006C247.805 232.006 248.239 231.894 248.631 231.67C249.032 231.437 249.35 231.105 249.583 230.676C249.816 230.237 249.933 229.729 249.933 229.15ZM254.928 226.378V230.9C254.928 231.273 255.007 231.539 255.166 231.698C255.325 231.847 255.6 231.922 255.992 231.922H256.93V233H255.782C255.073 233 254.541 232.837 254.186 232.51C253.831 232.183 253.654 231.647 253.654 230.9V226.378H252.66V225.328H253.654V223.396H254.928V225.328H256.93V226.378H254.928ZM259.132 224.082C258.889 224.082 258.684 223.998 258.516 223.83C258.348 223.662 258.264 223.457 258.264 223.214C258.264 222.971 258.348 222.766 258.516 222.598C258.684 222.43 258.889 222.346 259.132 222.346C259.365 222.346 259.561 222.43 259.72 222.598C259.888 222.766 259.972 222.971 259.972 223.214C259.972 223.457 259.888 223.662 259.72 223.83C259.561 223.998 259.365 224.082 259.132 224.082ZM259.748 225.328V233H258.474V225.328H259.748ZM269.389 225.188C270.323 225.188 271.079 225.473 271.657 226.042C272.236 226.602 272.525 227.414 272.525 228.478V233H271.265V228.66C271.265 227.895 271.074 227.311 270.691 226.91C270.309 226.499 269.786 226.294 269.123 226.294C268.451 226.294 267.915 226.504 267.513 226.924C267.121 227.344 266.925 227.955 266.925 228.758V233H265.651V225.328H266.925V226.42C267.177 226.028 267.518 225.725 267.947 225.51C268.386 225.295 268.867 225.188 269.389 225.188ZM275.264 224.082C275.022 224.082 274.816 223.998 274.648 223.83C274.48 223.662 274.396 223.457 274.396 223.214C274.396 222.971 274.48 222.766 274.648 222.598C274.816 222.43 275.022 222.346 275.264 222.346C275.498 222.346 275.694 222.43 275.852 222.598C276.02 222.766 276.104 222.971 276.104 223.214C276.104 223.457 276.02 223.662 275.852 223.83C275.694 223.998 275.498 224.082 275.264 224.082ZM275.88 225.328V233H274.606V225.328H275.88ZM281.86 225.188C282.438 225.188 282.961 225.314 283.428 225.566C283.894 225.809 284.258 226.177 284.52 226.672C284.79 227.167 284.926 227.769 284.926 228.478V233H283.666V228.66C283.666 227.895 283.474 227.311 283.092 226.91C282.709 226.499 282.186 226.294 281.524 226.294C280.852 226.294 280.315 226.504 279.914 226.924C279.522 227.344 279.326 227.955 279.326 228.758V233H278.052V222.64H279.326V226.42C279.578 226.028 279.923 225.725 280.362 225.51C280.81 225.295 281.309 225.188 281.86 225.188ZM288.323 231.236L286.755 235.002H285.901L286.923 231.236H288.323ZM31.9258 253.126C31.3378 253.126 30.8105 253.028 30.3438 252.832C29.8772 252.627 29.5085 252.347 29.2378 251.992C28.9672 251.628 28.8178 251.213 28.7898 250.746H30.1058C30.1432 251.129 30.3205 251.441 30.6378 251.684C30.9645 251.927 31.3892 252.048 31.9118 252.048C32.3972 252.048 32.7798 251.941 33.0598 251.726C33.3398 251.511 33.4798 251.241 33.4798 250.914C33.4798 250.578 33.3305 250.331 33.0318 250.172C32.7332 250.004 32.2712 249.841 31.6458 249.682C31.0765 249.533 30.6098 249.383 30.2458 249.234C29.8912 249.075 29.5832 248.847 29.3218 248.548C29.0698 248.24 28.9438 247.839 28.9438 247.344C28.9438 246.952 29.0605 246.593 29.2938 246.266C29.5272 245.939 29.8585 245.683 30.2878 245.496C30.7172 245.3 31.2072 245.202 31.7578 245.202C32.6072 245.202 33.2932 245.417 33.8158 245.846C34.3385 246.275 34.6185 246.863 34.6558 247.61H33.3818C33.3538 247.209 33.1905 246.887 32.8918 246.644C32.6025 246.401 32.2105 246.28 31.7158 246.28C31.2585 246.28 30.8945 246.378 30.6238 246.574C30.3532 246.77 30.2178 247.027 30.2178 247.344C30.2178 247.596 30.2972 247.806 30.4558 247.974C30.6238 248.133 30.8292 248.263 31.0718 248.366C31.3238 248.459 31.6692 248.567 32.1078 248.688C32.6585 248.837 33.1065 248.987 33.4518 249.136C33.7972 249.276 34.0912 249.491 34.3338 249.78C34.5858 250.069 34.7165 250.447 34.7258 250.914C34.7258 251.334 34.6092 251.712 34.3758 252.048C34.1425 252.384 33.8112 252.65 33.3818 252.846C32.9618 253.033 32.4765 253.126 31.9258 253.126ZM36.0483 249.136C36.0483 248.352 36.207 247.666 36.5243 247.078C36.8416 246.481 37.2756 246.019 37.8263 245.692C38.3863 245.365 39.007 245.202 39.6883 245.202C40.3603 245.202 40.9436 245.347 41.4383 245.636C41.933 245.925 42.3016 246.289 42.5443 246.728V245.328H43.8323V253H42.5443V251.572C42.2923 252.02 41.9143 252.393 41.4103 252.692C40.9156 252.981 40.337 253.126 39.6743 253.126C38.993 253.126 38.377 252.958 37.8263 252.622C37.2756 252.286 36.8416 251.815 36.5243 251.208C36.207 250.601 36.0483 249.911 36.0483 249.136ZM42.5443 249.15C42.5443 248.571 42.4276 248.067 42.1943 247.638C41.961 247.209 41.6436 246.882 41.2423 246.658C40.8503 246.425 40.4163 246.308 39.9403 246.308C39.4643 246.308 39.0303 246.42 38.6383 246.644C38.2463 246.868 37.9336 247.195 37.7003 247.624C37.467 248.053 37.3503 248.557 37.3503 249.136C37.3503 249.724 37.467 250.237 37.7003 250.676C37.9336 251.105 38.2463 251.437 38.6383 251.67C39.0303 251.894 39.4643 252.006 39.9403 252.006C40.4163 252.006 40.8503 251.894 41.2423 251.67C41.6436 251.437 41.961 251.105 42.1943 250.676C42.4276 250.237 42.5443 249.729 42.5443 249.15ZM47.2592 246.756C47.5206 246.299 47.9032 245.925 48.4072 245.636C48.9112 245.347 49.4852 245.202 50.1292 245.202C50.8199 245.202 51.4406 245.365 51.9912 245.692C52.5419 246.019 52.9759 246.481 53.2932 247.078C53.6106 247.666 53.7692 248.352 53.7692 249.136C53.7692 249.911 53.6106 250.601 53.2932 251.208C52.9759 251.815 52.5372 252.286 51.9772 252.622C51.4266 252.958 50.8106 253.126 50.1292 253.126C49.4666 253.126 48.8832 252.981 48.3792 252.692C47.8846 252.403 47.5112 252.034 47.2592 251.586V253H45.9852V242.64H47.2592V246.756ZM52.4672 249.136C52.4672 248.557 52.3506 248.053 52.1172 247.624C51.8839 247.195 51.5666 246.868 51.1652 246.644C50.7732 246.42 50.3392 246.308 49.8632 246.308C49.3966 246.308 48.9626 246.425 48.5612 246.658C48.1692 246.882 47.8519 247.213 47.6092 247.652C47.3759 248.081 47.2592 248.581 47.2592 249.15C47.2592 249.729 47.3759 250.237 47.6092 250.676C47.8519 251.105 48.1692 251.437 48.5612 251.67C48.9626 251.894 49.3966 252.006 49.8632 252.006C50.3392 252.006 50.7732 251.894 51.1652 251.67C51.5666 251.437 51.8839 251.105 52.1172 250.676C52.3506 250.237 52.4672 249.724 52.4672 249.136ZM54.9702 249.136C54.9702 248.352 55.1288 247.666 55.4462 247.078C55.7635 246.481 56.1975 246.019 56.7482 245.692C57.3082 245.365 57.9288 245.202 58.6102 245.202C59.2822 245.202 59.8655 245.347 60.3602 245.636C60.8548 245.925 61.2235 246.289 61.4662 246.728V245.328H62.7542V253H61.4662V251.572C61.2142 252.02 60.8362 252.393 60.3322 252.692C59.8375 252.981 59.2588 253.126 58.5962 253.126C57.9148 253.126 57.2988 252.958 56.7482 252.622C56.1975 252.286 55.7635 251.815 55.4462 251.208C55.1288 250.601 54.9702 249.911 54.9702 249.136ZM61.4662 249.15C61.4662 248.571 61.3495 248.067 61.1162 247.638C60.8828 247.209 60.5655 246.882 60.1642 246.658C59.7722 246.425 59.3382 246.308 58.8622 246.308C58.3862 246.308 57.9522 246.42 57.5602 246.644C57.1682 246.868 56.8555 247.195 56.6222 247.624C56.3888 248.053 56.2722 248.557 56.2722 249.136C56.2722 249.724 56.3888 250.237 56.6222 250.676C56.8555 251.105 57.1682 251.437 57.5602 251.67C57.9522 251.894 58.3862 252.006 58.8622 252.006C59.3382 252.006 59.7722 251.894 60.1642 251.67C60.5655 251.437 60.8828 251.105 61.1162 250.676C61.3495 250.237 61.4662 249.729 61.4662 249.15ZM66.1811 246.574C66.4051 246.135 66.7224 245.795 67.1331 245.552C67.5531 245.309 68.0618 245.188 68.6591 245.188V246.504H68.3231C66.8951 246.504 66.1811 247.279 66.1811 248.828V253H64.9071V245.328H66.1811V246.574ZM80.4702 245.328L75.8502 256.612H74.5342L76.0462 252.916L72.9522 245.328H74.3662L76.7742 251.544L79.1542 245.328H80.4702ZM81.2749 249.136C81.2749 248.352 81.4335 247.666 81.7509 247.078C82.0682 246.481 82.5022 246.019 83.0529 245.692C83.6129 245.365 84.2335 245.202 84.9149 245.202C85.5869 245.202 86.1702 245.347 86.6649 245.636C87.1595 245.925 87.5282 246.289 87.7709 246.728V245.328H89.0589V253H87.7709V251.572C87.5189 252.02 87.1409 252.393 86.6369 252.692C86.1422 252.981 85.5635 253.126 84.9009 253.126C84.2195 253.126 83.6035 252.958 83.0529 252.622C82.5022 252.286 82.0682 251.815 81.7509 251.208C81.4335 250.601 81.2749 249.911 81.2749 249.136ZM87.7709 249.15C87.7709 248.571 87.6542 248.067 87.4209 247.638C87.1875 247.209 86.8702 246.882 86.4689 246.658C86.0769 246.425 85.6429 246.308 85.1669 246.308C84.6909 246.308 84.2569 246.42 83.8649 246.644C83.4729 246.868 83.1602 247.195 82.9269 247.624C82.6935 248.053 82.5769 248.557 82.5769 249.136C82.5769 249.724 82.6935 250.237 82.9269 250.676C83.1602 251.105 83.4729 251.437 83.8649 251.67C84.2569 251.894 84.6909 252.006 85.1669 252.006C85.6429 252.006 86.0769 251.894 86.4689 251.67C86.8702 251.437 87.1875 251.105 87.4209 250.676C87.6542 250.237 87.7709 249.729 87.7709 249.15ZM96.2182 246.574C96.4422 246.135 96.7595 245.795 97.1702 245.552C97.5902 245.309 98.0989 245.188 98.6962 245.188V246.504H98.3602C96.9322 246.504 96.2182 247.279 96.2182 248.828V253H94.9442V245.328H96.2182V246.574ZM107.167 248.87C107.167 249.113 107.153 249.369 107.125 249.64H100.993C101.04 250.396 101.296 250.989 101.763 251.418C102.239 251.838 102.813 252.048 103.485 252.048C104.036 252.048 104.493 251.922 104.857 251.67C105.23 251.409 105.492 251.063 105.641 250.634H107.013C106.808 251.371 106.397 251.973 105.781 252.44C105.165 252.897 104.4 253.126 103.485 253.126C102.757 253.126 102.104 252.963 101.525 252.636C100.956 252.309 100.508 251.847 100.181 251.25C99.8542 250.643 99.6909 249.943 99.6909 249.15C99.6909 248.357 99.8495 247.661 100.167 247.064C100.484 246.467 100.928 246.009 101.497 245.692C102.076 245.365 102.738 245.202 103.485 245.202C104.213 245.202 104.857 245.361 105.417 245.678C105.977 245.995 106.406 246.434 106.705 246.994C107.013 247.545 107.167 248.17 107.167 248.87ZM105.851 248.604C105.851 248.119 105.744 247.703 105.529 247.358C105.314 247.003 105.02 246.737 104.647 246.56C104.283 246.373 103.877 246.28 103.429 246.28C102.785 246.28 102.234 246.485 101.777 246.896C101.329 247.307 101.072 247.876 101.007 248.604H105.851ZM109.535 244.082C109.292 244.082 109.087 243.998 108.919 243.83C108.76 243.662 108.681 243.457 108.681 243.214C108.681 242.971 108.76 242.766 108.919 242.598C109.087 242.43 109.292 242.346 109.535 242.346C109.777 242.346 109.978 242.43 110.137 242.598C110.305 242.766 110.389 242.971 110.389 243.214C110.389 243.457 110.305 243.662 110.137 243.83C109.978 243.998 109.777 244.082 109.535 244.082ZM110.165 254.666C110.165 255.347 109.992 255.847 109.647 256.164C109.301 256.481 108.797 256.64 108.135 256.64H107.393V255.562H107.925C108.279 255.562 108.527 255.492 108.667 255.352C108.816 255.212 108.891 254.974 108.891 254.638V245.328H110.165V254.666ZM119.321 248.87C119.321 249.113 119.307 249.369 119.279 249.64H113.147C113.194 250.396 113.45 250.989 113.917 251.418C114.393 251.838 114.967 252.048 115.639 252.048C116.19 252.048 116.647 251.922 117.011 251.67C117.384 251.409 117.646 251.063 117.795 250.634H119.167C118.962 251.371 118.551 251.973 117.935 252.44C117.319 252.897 116.554 253.126 115.639 253.126C114.911 253.126 114.258 252.963 113.679 252.636C113.11 252.309 112.662 251.847 112.335 251.25C112.008 250.643 111.845 249.943 111.845 249.15C111.845 248.357 112.004 247.661 112.321 247.064C112.638 246.467 113.082 246.009 113.651 245.692C114.23 245.365 114.892 245.202 115.639 245.202C116.367 245.202 117.011 245.361 117.571 245.678C118.131 245.995 118.56 246.434 118.859 246.994C119.167 247.545 119.321 248.17 119.321 248.87ZM118.005 248.604C118.005 248.119 117.898 247.703 117.683 247.358C117.468 247.003 117.174 246.737 116.801 246.56C116.437 246.373 116.031 246.28 115.583 246.28C114.939 246.28 114.388 246.485 113.931 246.896C113.483 247.307 113.226 247.876 113.161 248.604H118.005ZM125.287 253L122.277 249.612V253H121.003V242.64H122.277V248.73L125.231 245.328H127.009L123.397 249.15L127.023 253H125.287ZM128.866 244.082C128.623 244.082 128.418 243.998 128.25 243.83C128.082 243.662 127.998 243.457 127.998 243.214C127.998 242.971 128.082 242.766 128.25 242.598C128.418 242.43 128.623 242.346 128.866 242.346C129.099 242.346 129.295 242.43 129.454 242.598C129.622 242.766 129.706 242.971 129.706 243.214C129.706 243.457 129.622 243.662 129.454 243.83C129.295 243.998 129.099 244.082 128.866 244.082ZM129.482 245.328V253H128.208V245.328H129.482ZM139.124 245.188C140.057 245.188 140.813 245.473 141.392 246.042C141.97 246.602 142.26 247.414 142.26 248.478V253H141V248.66C141 247.895 140.808 247.311 140.426 246.91C140.043 246.499 139.52 246.294 138.858 246.294C138.186 246.294 137.649 246.504 137.248 246.924C136.856 247.344 136.66 247.955 136.66 248.758V253H135.386V245.328H136.66V246.42C136.912 246.028 137.252 245.725 137.682 245.51C138.12 245.295 138.601 245.188 139.124 245.188ZM147.505 245.202C148.167 245.202 148.746 245.347 149.241 245.636C149.745 245.925 150.118 246.289 150.361 246.728V245.328H151.649V253.168C151.649 253.868 151.499 254.489 151.201 255.03C150.902 255.581 150.473 256.01 149.913 256.318C149.362 256.626 148.718 256.78 147.981 256.78C146.973 256.78 146.133 256.542 145.461 256.066C144.789 255.59 144.392 254.941 144.271 254.12H145.531C145.671 254.587 145.96 254.96 146.399 255.24C146.837 255.529 147.365 255.674 147.981 255.674C148.681 255.674 149.25 255.455 149.689 255.016C150.137 254.577 150.361 253.961 150.361 253.168V251.558C150.109 252.006 149.735 252.379 149.241 252.678C148.746 252.977 148.167 253.126 147.505 253.126C146.823 253.126 146.203 252.958 145.643 252.622C145.092 252.286 144.658 251.815 144.341 251.208C144.023 250.601 143.865 249.911 143.865 249.136C143.865 248.352 144.023 247.666 144.341 247.078C144.658 246.481 145.092 246.019 145.643 245.692C146.203 245.365 146.823 245.202 147.505 245.202ZM150.361 249.15C150.361 248.571 150.244 248.067 150.011 247.638C149.777 247.209 149.46 246.882 149.059 246.658C148.667 246.425 148.233 246.308 147.757 246.308C147.281 246.308 146.847 246.42 146.455 246.644C146.063 246.868 145.75 247.195 145.517 247.624C145.283 248.053 145.167 248.557 145.167 249.136C145.167 249.724 145.283 250.237 145.517 250.676C145.75 251.105 146.063 251.437 146.455 251.67C146.847 251.894 147.281 252.006 147.757 252.006C148.233 252.006 148.667 251.894 149.059 251.67C149.46 251.437 149.777 251.105 150.011 250.676C150.244 250.237 150.361 249.729 150.361 249.15ZM156.966 245.202C157.628 245.202 158.207 245.347 158.702 245.636C159.206 245.925 159.579 246.289 159.822 246.728V245.328H161.11V253.168C161.11 253.868 160.96 254.489 160.662 255.03C160.363 255.581 159.934 256.01 159.374 256.318C158.823 256.626 158.179 256.78 157.442 256.78C156.434 256.78 155.594 256.542 154.922 256.066C154.25 255.59 153.853 254.941 153.732 254.12H154.992C155.132 254.587 155.421 254.96 155.86 255.24C156.298 255.529 156.826 255.674 157.442 255.674C158.142 255.674 158.711 255.455 159.15 255.016C159.598 254.577 159.822 253.961 159.822 253.168V251.558C159.57 252.006 159.196 252.379 158.702 252.678C158.207 252.977 157.628 253.126 156.966 253.126C156.284 253.126 155.664 252.958 155.104 252.622C154.553 252.286 154.119 251.815 153.802 251.208C153.484 250.601 153.326 249.911 153.326 249.136C153.326 248.352 153.484 247.666 153.802 247.078C154.119 246.481 154.553 246.019 155.104 245.692C155.664 245.365 156.284 245.202 156.966 245.202ZM159.822 249.15C159.822 248.571 159.705 248.067 159.472 247.638C159.238 247.209 158.921 246.882 158.52 246.658C158.128 246.425 157.694 246.308 157.218 246.308C156.742 246.308 156.308 246.42 155.916 246.644C155.524 246.868 155.211 247.195 154.978 247.624C154.744 248.053 154.628 248.557 154.628 249.136C154.628 249.724 154.744 250.237 154.978 250.676C155.211 251.105 155.524 251.437 155.916 251.67C156.308 251.894 156.742 252.006 157.218 252.006C157.694 252.006 158.128 251.894 158.52 251.67C158.921 251.437 159.238 251.105 159.472 250.676C159.705 250.237 159.822 249.729 159.822 249.15ZM162.787 249.136C162.787 248.352 162.945 247.666 163.263 247.078C163.58 246.481 164.014 246.019 164.565 245.692C165.125 245.365 165.745 245.202 166.427 245.202C167.099 245.202 167.682 245.347 168.177 245.636C168.671 245.925 169.04 246.289 169.283 246.728V245.328H170.571V253H169.283V251.572C169.031 252.02 168.653 252.393 168.149 252.692C167.654 252.981 167.075 253.126 166.413 253.126C165.731 253.126 165.115 252.958 164.565 252.622C164.014 252.286 163.58 251.815 163.263 251.208C162.945 250.601 162.787 249.911 162.787 249.136ZM169.283 249.15C169.283 248.571 169.166 248.067 168.933 247.638C168.699 247.209 168.382 246.882 167.981 246.658C167.589 246.425 167.155 246.308 166.679 246.308C166.203 246.308 165.769 246.42 165.377 246.644C164.985 246.868 164.672 247.195 164.439 247.624C164.205 248.053 164.089 248.557 164.089 249.136C164.089 249.724 164.205 250.237 164.439 250.676C164.672 251.105 164.985 251.437 165.377 251.67C165.769 251.894 166.203 252.006 166.679 252.006C167.155 252.006 167.589 251.894 167.981 251.67C168.382 251.437 168.699 251.105 168.933 250.676C169.166 250.237 169.283 249.729 169.283 249.15ZM177.008 253L173.998 249.612V253H172.724V242.64H173.998V248.73L176.952 245.328H178.73L175.118 249.15L178.744 253H177.008ZM187.945 253L184.935 249.612V253H183.661V242.64H184.935V248.73L187.889 245.328H189.667L186.055 249.15L189.681 253H187.945ZM197.866 248.87C197.866 249.113 197.852 249.369 197.824 249.64H191.692C191.739 250.396 191.995 250.989 192.462 251.418C192.938 251.838 193.512 252.048 194.184 252.048C194.735 252.048 195.192 251.922 195.556 251.67C195.929 251.409 196.191 251.063 196.34 250.634H197.712C197.507 251.371 197.096 251.973 196.48 252.44C195.864 252.897 195.099 253.126 194.184 253.126C193.456 253.126 192.803 252.963 192.224 252.636C191.655 252.309 191.207 251.847 190.88 251.25C190.553 250.643 190.39 249.943 190.39 249.15C190.39 248.357 190.549 247.661 190.866 247.064C191.183 246.467 191.627 246.009 192.196 245.692C192.775 245.365 193.437 245.202 194.184 245.202C194.912 245.202 195.556 245.361 196.116 245.678C196.676 245.995 197.105 246.434 197.404 246.994C197.712 247.545 197.866 248.17 197.866 248.87ZM196.55 248.604C196.55 248.119 196.443 247.703 196.228 247.358C196.013 247.003 195.719 246.737 195.346 246.56C194.982 246.373 194.576 246.28 194.128 246.28C193.484 246.28 192.933 246.485 192.476 246.896C192.028 247.307 191.771 247.876 191.706 248.604H196.55ZM208.774 245.188C209.371 245.188 209.903 245.314 210.37 245.566C210.836 245.809 211.205 246.177 211.476 246.672C211.746 247.167 211.882 247.769 211.882 248.478V253H210.622V248.66C210.622 247.895 210.43 247.311 210.048 246.91C209.674 246.499 209.166 246.294 208.522 246.294C207.859 246.294 207.332 246.509 206.94 246.938C206.548 247.358 206.352 247.969 206.352 248.772V253H205.092V248.66C205.092 247.895 204.9 247.311 204.518 246.91C204.144 246.499 203.636 246.294 202.992 246.294C202.329 246.294 201.802 246.509 201.41 246.938C201.018 247.358 200.822 247.969 200.822 248.772V253H199.548V245.328H200.822V246.434C201.074 246.033 201.41 245.725 201.83 245.51C202.259 245.295 202.73 245.188 203.244 245.188C203.888 245.188 204.457 245.333 204.952 245.622C205.446 245.911 205.815 246.336 206.058 246.896C206.272 246.355 206.627 245.935 207.122 245.636C207.616 245.337 208.167 245.188 208.774 245.188ZM213.496 249.136C213.496 248.352 213.654 247.666 213.972 247.078C214.289 246.481 214.723 246.019 215.274 245.692C215.834 245.365 216.454 245.202 217.136 245.202C217.808 245.202 218.391 245.347 218.886 245.636C219.38 245.925 219.749 246.289 219.992 246.728V245.328H221.28V253H219.992V251.572C219.74 252.02 219.362 252.393 218.858 252.692C218.363 252.981 217.784 253.126 217.122 253.126C216.44 253.126 215.824 252.958 215.274 252.622C214.723 252.286 214.289 251.815 213.972 251.208C213.654 250.601 213.496 249.911 213.496 249.136ZM219.992 249.15C219.992 248.571 219.875 248.067 219.642 247.638C219.408 247.209 219.091 246.882 218.69 246.658C218.298 246.425 217.864 246.308 217.388 246.308C216.912 246.308 216.478 246.42 216.086 246.644C215.694 246.868 215.381 247.195 215.148 247.624C214.914 248.053 214.798 248.557 214.798 249.136C214.798 249.724 214.914 250.237 215.148 250.676C215.381 251.105 215.694 251.437 216.086 251.67C216.478 251.894 216.912 252.006 217.388 252.006C217.864 252.006 218.298 251.894 218.69 251.67C219.091 251.437 219.408 251.105 219.642 250.676C219.875 250.237 219.992 249.729 219.992 249.15ZM227.17 245.188C228.104 245.188 228.86 245.473 229.438 246.042C230.017 246.602 230.306 247.414 230.306 248.478V253H229.046V248.66C229.046 247.895 228.855 247.311 228.472 246.91C228.09 246.499 227.567 246.294 226.904 246.294C226.232 246.294 225.696 246.504 225.294 246.924C224.902 247.344 224.706 247.955 224.706 248.758V253H223.432V245.328H224.706V246.42C224.958 246.028 225.299 245.725 225.728 245.51C226.167 245.295 226.648 245.188 227.17 245.188ZM231.912 249.136C231.912 248.352 232.07 247.666 232.388 247.078C232.705 246.481 233.139 246.019 233.69 245.692C234.25 245.365 234.87 245.202 235.552 245.202C236.224 245.202 236.807 245.347 237.302 245.636C237.796 245.925 238.165 246.289 238.408 246.728V245.328H239.696V253H238.408V251.572C238.156 252.02 237.778 252.393 237.274 252.692C236.779 252.981 236.2 253.126 235.538 253.126C234.856 253.126 234.24 252.958 233.69 252.622C233.139 252.286 232.705 251.815 232.388 251.208C232.07 250.601 231.912 249.911 231.912 249.136ZM238.408 249.15C238.408 248.571 238.291 248.067 238.058 247.638C237.824 247.209 237.507 246.882 237.106 246.658C236.714 246.425 236.28 246.308 235.804 246.308C235.328 246.308 234.894 246.42 234.502 246.644C234.11 246.868 233.797 247.195 233.564 247.624C233.33 248.053 233.214 248.557 233.214 249.136C233.214 249.724 233.33 250.237 233.564 250.676C233.797 251.105 234.11 251.437 234.502 251.67C234.894 251.894 235.328 252.006 235.804 252.006C236.28 252.006 236.714 251.894 237.106 251.67C237.507 251.437 237.824 251.105 238.058 250.676C238.291 250.237 238.408 249.729 238.408 249.15ZM249.865 253L246.855 249.612V253H245.581V242.64H246.855V248.73L249.809 245.328H251.587L247.975 249.15L251.601 253H249.865ZM256.132 253.126C255.413 253.126 254.76 252.963 254.172 252.636C253.593 252.309 253.136 251.847 252.8 251.25C252.473 250.643 252.31 249.943 252.31 249.15C252.31 248.366 252.478 247.675 252.814 247.078C253.159 246.471 253.626 246.009 254.214 245.692C254.802 245.365 255.46 245.202 256.188 245.202C256.916 245.202 257.574 245.365 258.162 245.692C258.75 246.009 259.212 246.467 259.548 247.064C259.893 247.661 260.066 248.357 260.066 249.15C260.066 249.943 259.889 250.643 259.534 251.25C259.189 251.847 258.717 252.309 258.12 252.636C257.523 252.963 256.86 253.126 256.132 253.126ZM256.132 252.006C256.589 252.006 257.019 251.899 257.42 251.684C257.821 251.469 258.143 251.147 258.386 250.718C258.638 250.289 258.764 249.766 258.764 249.15C258.764 248.534 258.643 248.011 258.4 247.582C258.157 247.153 257.84 246.835 257.448 246.63C257.056 246.415 256.631 246.308 256.174 246.308C255.707 246.308 255.278 246.415 254.886 246.63C254.503 246.835 254.195 247.153 253.962 247.582C253.729 248.011 253.612 248.534 253.612 249.15C253.612 249.775 253.724 250.303 253.948 250.732C254.181 251.161 254.489 251.483 254.872 251.698C255.255 251.903 255.675 252.006 256.132 252.006ZM266.025 253L263.015 249.612V253H261.741V242.64H263.015V248.73L265.969 245.328H267.747L264.135 249.15L267.761 253H266.025Z" fill="#151515"/>
</svg>
