<svg width="207" height="198" viewBox="0 0 207 198" fill="none" xmlns="http://www.w3.org/2000/svg">
<rect x="0.5" y="0.5" width="205.667" height="197" rx="3.5" fill="white"/>
<path d="M103.333 75V89" stroke="#8A8A8A" stroke-width="2" stroke-linecap="round" stroke-linejoin="round"/>
<path d="M96.3334 82H110.333" stroke="#8A8A8A" stroke-width="2" stroke-linecap="round" stroke-linejoin="round"/>
<path d="M61.8448 106.636V107.524H59.5648V115H58.4728V107.524H56.1808V106.636H61.8448ZM62.781 111.688C62.781 111.016 62.917 110.428 63.189 109.924C63.461 109.412 63.833 109.016 64.305 108.736C64.785 108.456 65.317 108.316 65.901 108.316C66.477 108.316 66.977 108.44 67.401 108.688C67.825 108.936 68.141 109.248 68.349 109.624V108.424H69.453V115H68.349V113.776C68.133 114.16 67.809 114.48 67.377 114.736C66.953 114.984 66.457 115.108 65.889 115.108C65.305 115.108 64.777 114.964 64.305 114.676C63.833 114.388 63.461 113.984 63.189 113.464C62.917 112.944 62.781 112.352 62.781 111.688ZM68.349 111.7C68.349 111.204 68.249 110.772 68.049 110.404C67.849 110.036 67.577 109.756 67.233 109.564C66.897 109.364 66.525 109.264 66.117 109.264C65.709 109.264 65.337 109.36 65.001 109.552C64.665 109.744 64.397 110.024 64.197 110.392C63.997 110.76 63.897 111.192 63.897 111.688C63.897 112.192 63.997 112.632 64.197 113.008C64.397 113.376 64.665 113.66 65.001 113.86C65.337 114.052 65.709 114.148 66.117 114.148C66.525 114.148 66.897 114.052 67.233 113.86C67.577 113.66 67.849 113.376 68.049 113.008C68.249 112.632 68.349 112.196 68.349 111.7ZM79.2064 108.304C79.7184 108.304 80.1744 108.412 80.5744 108.628C80.9744 108.836 81.2904 109.152 81.5224 109.576C81.7544 110 81.8704 110.516 81.8704 111.124V115H80.7904V111.28C80.7904 110.624 80.6264 110.124 80.2984 109.78C79.9784 109.428 79.5424 109.252 78.9904 109.252C78.4224 109.252 77.9704 109.436 77.6344 109.804C77.2984 110.164 77.1304 110.688 77.1304 111.376V115H76.0504V111.28C76.0504 110.624 75.8864 110.124 75.5584 109.78C75.2384 109.428 74.8024 109.252 74.2504 109.252C73.6824 109.252 73.2304 109.436 72.8944 109.804C72.5584 110.164 72.3904 110.688 72.3904 111.376V115H71.2984V108.424H72.3904V109.372C72.6064 109.028 72.8944 108.764 73.2544 108.58C73.6224 108.396 74.0264 108.304 74.4664 108.304C75.0184 108.304 75.5064 108.428 75.9304 108.676C76.3544 108.924 76.6704 109.288 76.8784 109.768C77.0624 109.304 77.3664 108.944 77.7904 108.688C78.2144 108.432 78.6864 108.304 79.2064 108.304ZM84.7537 109.648C84.9777 109.256 85.3057 108.936 85.7377 108.688C86.1697 108.44 86.6617 108.316 87.2137 108.316C87.8057 108.316 88.3377 108.456 88.8097 108.736C89.2817 109.016 89.6537 109.412 89.9257 109.924C90.1977 110.428 90.3337 111.016 90.3337 111.688C90.3337 112.352 90.1977 112.944 89.9257 113.464C89.6537 113.984 89.2777 114.388 88.7977 114.676C88.3257 114.964 87.7977 115.108 87.2137 115.108C86.6457 115.108 86.1457 114.984 85.7137 114.736C85.2897 114.488 84.9697 114.172 84.7537 113.788V115H83.6617V106.12H84.7537V109.648ZM89.2177 111.688C89.2177 111.192 89.1177 110.76 88.9177 110.392C88.7177 110.024 88.4457 109.744 88.1017 109.552C87.7657 109.36 87.3937 109.264 86.9857 109.264C86.5857 109.264 86.2137 109.364 85.8697 109.564C85.5337 109.756 85.2617 110.04 85.0537 110.416C84.8537 110.784 84.7537 111.212 84.7537 111.7C84.7537 112.196 84.8537 112.632 85.0537 113.008C85.2617 113.376 85.5337 113.66 85.8697 113.86C86.2137 114.052 86.5857 114.148 86.9857 114.148C87.3937 114.148 87.7657 114.052 88.1017 113.86C88.4457 113.66 88.7177 113.376 88.9177 113.008C89.1177 112.632 89.2177 112.192 89.2177 111.688ZM91.363 111.688C91.363 111.016 91.499 110.428 91.771 109.924C92.043 109.412 92.415 109.016 92.887 108.736C93.367 108.456 93.899 108.316 94.483 108.316C95.059 108.316 95.559 108.44 95.983 108.688C96.407 108.936 96.723 109.248 96.931 109.624V108.424H98.035V115H96.931V113.776C96.715 114.16 96.391 114.48 95.959 114.736C95.535 114.984 95.039 115.108 94.471 115.108C93.887 115.108 93.359 114.964 92.887 114.676C92.415 114.388 92.043 113.984 91.771 113.464C91.499 112.944 91.363 112.352 91.363 111.688ZM96.931 111.7C96.931 111.204 96.831 110.772 96.631 110.404C96.431 110.036 96.159 109.756 95.815 109.564C95.479 109.364 95.107 109.264 94.699 109.264C94.291 109.264 93.919 109.36 93.583 109.552C93.247 109.744 92.979 110.024 92.779 110.392C92.579 110.76 92.479 111.192 92.479 111.688C92.479 112.192 92.579 112.632 92.779 113.008C92.979 113.376 93.247 113.66 93.583 113.86C93.919 114.052 94.291 114.148 94.699 114.148C95.107 114.148 95.479 114.052 95.815 113.86C96.159 113.66 96.431 113.376 96.631 113.008C96.831 112.632 96.931 112.196 96.931 111.7ZM103.144 108.304C103.64 108.304 104.088 108.412 104.488 108.628C104.888 108.836 105.2 109.152 105.424 109.576C105.656 110 105.772 110.516 105.772 111.124V115H104.692V111.28C104.692 110.624 104.528 110.124 104.2 109.78C103.872 109.428 103.424 109.252 102.856 109.252C102.28 109.252 101.82 109.432 101.476 109.792C101.14 110.152 100.972 110.676 100.972 111.364V115H99.8804V106.12H100.972V109.36C101.188 109.024 101.484 108.764 101.86 108.58C102.244 108.396 102.672 108.304 103.144 108.304ZM116.347 109.084C116.347 109.78 116.107 110.36 115.627 110.824C115.155 111.28 114.431 111.508 113.455 111.508H111.847V115H110.755V106.636H113.455C114.399 106.636 115.115 106.864 115.603 107.32C116.099 107.776 116.347 108.364 116.347 109.084ZM113.455 110.608C114.063 110.608 114.511 110.476 114.799 110.212C115.087 109.948 115.231 109.572 115.231 109.084C115.231 108.052 114.639 107.536 113.455 107.536H111.847V110.608H113.455ZM118.797 109.492C118.989 109.116 119.261 108.824 119.613 108.616C119.973 108.408 120.409 108.304 120.921 108.304V109.432H120.633C119.409 109.432 118.797 110.096 118.797 111.424V115H117.705V108.424H118.797V109.492ZM125.049 115.108C124.433 115.108 123.873 114.968 123.369 114.688C122.873 114.408 122.481 114.012 122.193 113.5C121.913 112.98 121.773 112.38 121.773 111.7C121.773 111.028 121.917 110.436 122.205 109.924C122.501 109.404 122.901 109.008 123.405 108.736C123.909 108.456 124.473 108.316 125.097 108.316C125.721 108.316 126.285 108.456 126.789 108.736C127.293 109.008 127.689 109.4 127.977 109.912C128.273 110.424 128.421 111.02 128.421 111.7C128.421 112.38 128.269 112.98 127.965 113.5C127.669 114.012 127.265 114.408 126.753 114.688C126.241 114.968 125.673 115.108 125.049 115.108ZM125.049 114.148C125.441 114.148 125.809 114.056 126.153 113.872C126.497 113.688 126.773 113.412 126.981 113.044C127.197 112.676 127.305 112.228 127.305 111.7C127.305 111.172 127.201 110.724 126.993 110.356C126.785 109.988 126.513 109.716 126.177 109.54C125.841 109.356 125.477 109.264 125.085 109.264C124.685 109.264 124.317 109.356 123.981 109.54C123.653 109.716 123.389 109.988 123.189 110.356C122.989 110.724 122.889 111.172 122.889 111.7C122.889 112.236 122.985 112.688 123.177 113.056C123.377 113.424 123.641 113.7 123.969 113.884C124.297 114.06 124.657 114.148 125.049 114.148ZM129.449 111.688C129.449 111.016 129.585 110.428 129.857 109.924C130.129 109.412 130.501 109.016 130.973 108.736C131.453 108.456 131.989 108.316 132.581 108.316C133.093 108.316 133.569 108.436 134.009 108.676C134.449 108.908 134.785 109.216 135.017 109.6V106.12H136.121V115H135.017V113.764C134.801 114.156 134.481 114.48 134.057 114.736C133.633 114.984 133.137 115.108 132.569 115.108C131.985 115.108 131.453 114.964 130.973 114.676C130.501 114.388 130.129 113.984 129.857 113.464C129.585 112.944 129.449 112.352 129.449 111.688ZM135.017 111.7C135.017 111.204 134.917 110.772 134.717 110.404C134.517 110.036 134.245 109.756 133.901 109.564C133.565 109.364 133.193 109.264 132.785 109.264C132.377 109.264 132.005 109.36 131.669 109.552C131.333 109.744 131.065 110.024 130.865 110.392C130.665 110.76 130.565 111.192 130.565 111.688C130.565 112.192 130.665 112.632 130.865 113.008C131.065 113.376 131.333 113.66 131.669 113.86C132.005 114.052 132.377 114.148 132.785 114.148C133.193 114.148 133.565 114.052 133.901 113.86C134.245 113.66 134.517 113.376 134.717 113.008C134.917 112.632 135.017 112.196 135.017 111.7ZM143.798 108.424V115H142.706V114.028C142.498 114.364 142.206 114.628 141.83 114.82C141.462 115.004 141.054 115.096 140.606 115.096C140.094 115.096 139.634 114.992 139.226 114.784C138.818 114.568 138.494 114.248 138.254 113.824C138.022 113.4 137.906 112.884 137.906 112.276V108.424H138.986V112.132C138.986 112.78 139.15 113.28 139.478 113.632C139.806 113.976 140.254 114.148 140.822 114.148C141.406 114.148 141.866 113.968 142.202 113.608C142.538 113.248 142.706 112.724 142.706 112.036V108.424H143.798ZM149.314 115L146.734 112.096V115H145.642V106.12H146.734V111.34L149.266 108.424H150.79L147.694 111.7L150.802 115H149.314Z" fill="#8A8A8A"/>
<rect x="0.5" y="0.5" width="205.667" height="197" rx="3.5" stroke="#D0D0D0" stroke-linecap="round" stroke-dasharray="8 8"/>
</svg>
